<svg xmlns="http://www.w3.org/2000/svg" viewBox="0 0 514.65 545.21"><defs><style>.cls-1{fill:#fff;}</style></defs><g id="Layer_6" data-name="Layer 6"><path class="cls-1" d="M309.88,476.68c2.83-5.89-.39-7.82-3.42-9.67-8.82-5.37-9.27-6.36-5.61-15.62,1.31-3.31.34-4.72-3.1-4.69h-2c-1-6.06-1.33-11.73-2.95-17-2.5-8.17-5.67-16.08.22-25.3l-6.66,1.91-.73-.75,4.21-4.55c-4.63-8.28-4.76-17-.42-25.8,1.47-3,2.65-6.08,4-9.11,3.51-7.86,2.9-15.36-1.17-22.95a8.85,8.85,0,0,1,.13-7.18c.59-1.16,3.88-.95,6.55-1.47-2.53-12.31.44-24.35,8-35.11-3.56-6.87-2.49-13.43,1.08-19.52.94-1.61,3.83-2.58,6-2.91,4.54-.7,5.31-3.31,4.57-7.13a3.86,3.86,0,0,0-.1-.49c-3.67-10.92-.13-19.73,7.75-27.44,3.95-3.85,5.77-8.9,4.3-14.15-3.47-12.36.94-22.5,8.07-32,7.54-10,13.94-20.55,17-32.92,1.73-7.06,4.06-14,6.19-20.94.82-2.68,2-3.4,5.19-2.3,2.37.82,6.26.41,8.14-1.11,4.65-3.77,8.29-8.78,12.82-12.75,4.27-3.74,9.12-6.84,13.78-10.13a34.7,34.7,0,0,1,4.2-2.18c-2.64-8.79,1.48-14.75,8.45-19.26,7.37-4.76,14.87-9.3,22.34-13.89a3,3,0,0,1,1.85-.21C451.85,82,469,99,471.29,112.47a6.18,6.18,0,0,1,.34,2.45c-2.52,8.8,4.34,14.24,7.35,21.09,3.72,8.49,7.86,16.94,10.19,25.83,1.32,5-.62,10.9-1.16,17.15,12.27,10.1,17.28,25.24,18.53,41.32,1.42,18.38,1,36.9,1.34,55.36,0,1.47,0,2.94,0,5.18l6.76-3c-2.48,5.87-4.27,10.67-6.51,15.25-4.3,8.78-9.26,17.26-13.17,26.19-3.2,7.3-4.73,15.1-3.29,23.28.28,1.56-1,4.15-2.36,5.13-8,5.72-12.47,12.7-9.69,22.95.27,1-.26,3.1-.95,3.38-9.82,4-13,13-15.92,21.77-2.22,6.78-4.78,12.41-11.4,16.24-8.74,5.07-12.13,14.57-16.63,23-4.13,7.75-8.17,15.55-12.54,23.16a24.33,24.33,0,0,1-16.78,11.65c-8.22,1.62-14.46,4.55-16.08,14.91l-9.68-8.92c-1.56,8-7.9,10.08-13.74,12.76-7.94,3.63-16.54,6-22.66,13-2.41,2.76-6.85.64-7.3-3.09a15,15,0,0,1,0-1.5c-.24-10.68-.22-10.45-10.6-9.71-2,.14-4.39-2-6.14-3.6-.93-.84-1.05-2.75-1.24-4.21C317.38,475.13,315.33,473.61,309.88,476.68ZM430.49,369.93c.27-3.53-.31-7,.91-9.65A173.48,173.48,0,0,1,442.76,339c5.78-9,11.29-18,8.06-29.23-1.35-4.7.07-7.82,2.52-11.7,11.73-18.49,15.47-39.13,14.2-60.64-.47-8-2.44-16.13-7.65-21.2,1.44-3.72,3.31-6.62,3.55-9.65.33-4.2-.56-8.48-.9-12.35-2-2.6-4.64-5.11-6.21-8.14-1.65-3.19-2.22-6.92-3.45-10.35-.93-2.61-1.73-5.49-3.46-7.5-.82-1-3.68-.17-5.83-.17l6.81-14.59-9.85,2-.33-1.39,9.41-6.42c-8-5.13-16.29-8.51-18.66-18l-21.08,10.61v19.17c-1.74-.86-2.87-1.56-4.1-2-5.88-2.14-10.37,1.26-10.85,7.31a98.6,98.6,0,0,1-3,15.52c-1.25,5.08-2.95,10-4.57,15.46l-6.5-3.64,3.64,7.12c-7.64-.31-10.39,2.24-10,9.62a32.94,32.94,0,0,1-4.8,19c-4.11,7.16-10.13,13.93-6.57,23.58-7.58-2.58-7.95-2.31-8.22,5.26-.28,8.17-.94,9-10.8,11.89,2.3,2.09,4,3.79,5.87,5.27,1.39,1.09,3.31,1.62,4.43,2.9a4.49,4.49,0,0,1,.75,3.95c-.41.94-2.17,1.55-3.44,1.82a30.47,30.47,0,0,1-5.37.07c3.12,2.74,6.84,4.48,7.31,6.86s-2.46,5.24-4.75,9.47c-.73-1.7-.88-2.67-1.44-3.2a51.18,51.18,0,0,0-4.07-3.2c-.54,1.59-1.19,3.15-1.6,4.77-.36,1.44-.35,3-.69,4.42-3.57,15.17-7.61,30.24-10.62,45.51-2.57,13.06-3.61,26.31,2.16,39.06.41.91.17,2.1.26,3.7l-7.74-2.07c2.57,5.34,5.67,10.24,7.32,15.59,2,6.49-2.48,11.15-5.68,14.36l15.38,16.47c-2.29,1.42-3.86,1.93-4.66,3-.69.93-1.17,3.08-.62,3.7,4,4.62,8.08,9.25,15.26,8.83,6.11-.36,12.27,0,18.4-.15a6,6,0,0,0,3.68-1.66c4.12-4.09,8-8.47,12.1-12.54,11.49-11.27,24.12-21.83,23.35-40.62,1.89.77,3.4,2,4.54,1.72,1.64-.4,3.71-1.58,4.35-3a47.73,47.73,0,0,0,3.1-10.2A77.4,77.4,0,0,0,423,372.26c.09-1.64-.59-3.33-1.12-6.05Z"/><path class="cls-1" d="M61.7,360.71c3.49-8.53,6.5-17,10.32-25,5.53-11.62,10.85-23.25,12.43-36.17.88-7.22.33-14.44-3.51-20.76-2.29-3.77-.4-4.9,2.47-5.55,2.53-.58,5.23-.45,8.28-.66-.18-1.2-.32-2.26-.5-3.31-1-6.06-.76-11.92,2.42-17.41,1.41-2.44,2.73-4.95,4-7.46,4.61-8.81,4.51-9.4-2-16.77-4.29-4.87-8.27-10-12.87-14.57-3-2.94-6.54-6-10.4-7.2-4.44-1.43-6.33-4.54-8-8-.64-1.37.57-3.6,2.23-6.7-3.92-1.19-7.77-2.93-11.78-3.42-4.16-.51-6-1.63-7.27-6.16-3.17-11.52-11.91-18.49-22.37-23.34-2.34-1.09-3.55-2.05-3.81-4.91-.61-6.76-4.13-12-9.26-16.54C6.82,132,2.46,126.53.39,119.27c-1-3.56,0-5.81,2.1-8.06a109.61,109.61,0,0,1,9.82-9.93c1.51-1.26,4.54-2.29,6.11-1.62a105.59,105.59,0,0,1,18.33,9.55c1.82,1.24,2.22,5.6,2.09,8.48-.59,12.49,4.95,21.45,15.33,27.65,2.57,1.54,5.79,2,9,3.09l-12,9.26c1.35,1,1.66,1.37,1.85,1.32,13.18-3.6,19,5.12,24.53,14.51,3.27,5.57,6.65,11.08,10.22,17,13-8.14,19.83,3.07,28.94,9,1.1-3.3,1.84-6.33,3.09-9.13,6.08-13.65,12.39-27.2,18.45-40.86,6.87-15.47,15-30.59,16.9-47.7.68-6.13,2.76-10.2,7.56-14,7.32-5.72,10.19-13.82,9.16-23.06-.45-4,1.35-5.94,4.44-8.28,9.93-7.49,19.19-15.85,29.11-23.35,10.55-8,21.2-16,32.52-22.74,5.64-3.37,12.82-4.33,19.43-5.83,5.06-1.14,6.72.83,5.91,5.93-.19,1.14-.36,2.29-.5,3.45-.11,1-.17,1.94-.28,3.34-5-.82-6.73,2.8-8.3,6.15-2.57,5.47-6,8.83-12.63,8.27-5.25-.44-6.33,3.71-6.49,7.66-.12,3.06-1.22,4.45-3.86,6-10.41,6.18-16.12,16.07-19.72,27.24a193.24,193.24,0,0,0-5.46,20.14c-.91,4.43-2.67,6.55-7.3,5.67a15,15,0,0,0-2.61,0c0,.72-.18,1.29,0,1.61,3.14,4.7,2.54,7-3,10.37-4.1,2.5-6.19,9-8.17,14.14-2.31,6-2.79,12.74-5.43,18.53-2.11,4.61-6.32,8.23-9.5,12.36-.78,1-1.86,2.44-1.65,3.43,2.17,10-2.14,17.77-8,25.17-3.4,4.27-6.95,8.53-9.58,13.27-1.38,2.47-1.52,6.05-1.12,9,.88,6.6.51,7.62-5.89,9.12,1.86,18.17,7.66,35.13,18.06,50C174.7,283.72,188.57,301.18,202,319c10.81,14.32,21.62,28.63,29,45.12a87.16,87.16,0,0,1,8,32.22,176.1,176.1,0,0,1-.79,24.95c-7.64-4.73-15.25-8.51-18.45-17.45-1.13-3.16-4.23-5.77-6.81-8.22a87.73,87.73,0,0,0-8.11-6.24c.07-.7,0-1.12.16-1.33,4.14-5.16,4.2-6.7-2-10.51-5.86-3.59-9.1-8-8.38-15,.53-5.19-3.44-6.63-7.39-8.13,2.07-12.4-4.7-21.56-12-29.9-11.44-13.14-23.78-25.51-35.74-38.21-2.75-2.92-5.4-1.73-7.86.34-2.77,2.35-5.49,4.78-8,7.38a5,5,0,0,0-1.22,3.44c.6,7.87-3,13.8-8.43,18.9-3.11,2.91-4.61,5.47-3.63,10.56,1.71,8.88-3.87,16.07-8.77,23.09-3.51,5-7.27,10-9.79,15.56a43.13,43.13,0,0,0-3.69,15.28c-.32,6.58-1.71,12.36-5.94,17.49-1.78,2.15-2.93,4.81-4.59,7.09-2.7,3.7-2.69,7,0,10.93a9.58,9.58,0,0,1,.58,7.83c-4.11,9.61-9,18.88-13.2,28.46a12.49,12.49,0,0,0-.49,8.4c1.77,4.85,1.45,8.36-4.26,10.78,8.78,11.75,3.18,24.26,2.73,36.46-.17,4.8-1.17,9.57-1.72,14.36a19,19,0,0,0,12.28,20.2c-3.51,2.79-5.8,3.2-10.15.91-9.88-5.21-16.08-14.22-22.73-22.71a2.83,2.83,0,0,1-.14-2.23c3.53-11.28.56-22.1-2.46-32.85-1.55-5.49-1.32-7.1,4-9.2,3.64-1.43,3.92-3.09,3.13-6.78-2.31-10.89-3.57-21.86,5.24-31a4.1,4.1,0,0,0,.74-3.44c-6.7-20.38-2.13-39,8.44-56.83,2-3.28,3.77-6.65,5.8-9.89C68.79,363.43,68.79,363.33,61.7,360.71Z"/><path class="cls-1" d="M322.37,53.07c2.95-2,6-4.08,9-6.25,3.2-2.33,6.31-4.76,9.43-7.18.72-.55,1.74-1.12,1.95-1.87,2.11-7.53,8.62-9.3,14.83-10.87,4.94-1.25,10.17-1.5,15.3-1.83A5.24,5.24,0,0,1,377,27c9.37,14.86,15.41,30.55,11.08,48.56-1.4,5.82-3.69,10.86-9.77,13.4-4.17,1.73-5.8,4.74-2.34,9-7.68-1.31-7.68-1.31-10.21,7.57-4-4.52-8-2.48-11.09.64-3.4,3.45-5.92,7.76-8.93,11.61-.92,1.19-2,2.72-3.28,3.08-13.72,3.84-20.7,16.39-18.75,31.16.2,1.48-1.25,3.18-1.93,4.78-1.65-.75-3.8-1.07-4.85-2.31-3.43-4.05-1.83-8.37.95-11.79s2.6-6.3.47-9.79c-1.28-2.1-1.35-5.75-3.05-6.65-9.46-5-13.86-15.63-24.1-20.13S271,97.63,259.64,98.73a4,4,0,0,1-2.68-.68c-3.49-3-7-5.92-10.19-9.18-1-1.05-2.06-3.52-1.53-4.48,5.87-10.57,11.38-21.44,18.31-31.3,8.26-11.73,21.63-13.66,34.8-15.6,8-1.18,15.07-.67,20,6.48C320,46.42,320.83,49.5,322.37,53.07Z"/></g></svg>